<svg width="20" height="20" viewBox="0 0 20 20" fill="none" xmlns="http://www.w3.org/2000/svg">
<path d="M11.4094 13.1483L10.8844 12.74C10.8966 12.6606 10.903 12.5804 10.9036 12.5C10.9042 12.4193 10.8976 12.3387 10.8836 12.2592L11.4044 11.8508C11.4269 11.8323 11.4422 11.8065 11.4477 11.7779C11.4532 11.7493 11.4485 11.7197 11.4344 11.6942L10.9428 10.8442C10.9279 10.8185 10.9044 10.799 10.8765 10.7891C10.8485 10.7792 10.818 10.7795 10.7903 10.79L10.1819 11.0358C10.0549 10.9357 9.914 10.8546 9.76361 10.795L9.67028 10.1467C9.66698 10.118 9.65313 10.0915 9.63142 10.0724C9.60971 10.0533 9.58169 10.043 9.55278 10.0433H8.56944C8.54015 10.0435 8.51184 10.0539 8.48946 10.0728C8.46707 10.0917 8.45202 10.1178 8.44694 10.1467L8.35361 10.795C8.20549 10.8585 8.06559 10.9396 7.93694 11.0367L7.32694 10.79C7.29917 10.7802 7.26885 10.7802 7.24108 10.79C7.21331 10.7999 7.18978 10.819 7.17444 10.8442L6.68278 11.6942C6.66784 11.7196 6.66265 11.7496 6.66816 11.7786C6.67368 11.8075 6.68954 11.8335 6.71278 11.8517L7.23361 12.26C7.21427 12.4197 7.21427 12.5812 7.23361 12.7408L6.71278 13.1492C6.69045 13.1678 6.67532 13.1937 6.66999 13.2223C6.66467 13.2509 6.66948 13.2804 6.68361 13.3058L7.17528 14.1558C7.19012 14.1813 7.21347 14.2007 7.24123 14.2106C7.26898 14.2205 7.29933 14.2203 7.32694 14.21L7.93611 13.9642C8.06287 14.0643 8.20351 14.1454 8.35361 14.205L8.44694 14.8533C8.45205 14.8823 8.46721 14.9086 8.48977 14.9275C8.51234 14.9464 8.54084 14.9567 8.57028 14.9567H9.55278C9.58207 14.9565 9.61038 14.9461 9.63277 14.9272C9.65515 14.9083 9.6702 14.8822 9.67528 14.8533L9.76861 14.205C9.91607 14.1428 10.0547 14.0616 10.1811 13.9633L10.7953 14.21C10.8231 14.2199 10.8534 14.2199 10.8811 14.21C10.9089 14.2001 10.9324 14.181 10.9478 14.1558L11.4394 13.3058C11.4537 13.2802 11.4585 13.2504 11.453 13.2217C11.4475 13.1929 11.4321 13.1669 11.4094 13.1483ZM9.06111 13.2367C8.91545 13.2365 8.7731 13.1932 8.65207 13.1121C8.53103 13.0311 8.43674 12.916 8.38111 12.7813C8.32549 12.6467 8.31102 12.4986 8.33953 12.3558C8.36805 12.2129 8.43828 12.0818 8.54134 11.9788C8.64439 11.8759 8.77566 11.8058 8.91853 11.7774C9.06141 11.7491 9.20949 11.7637 9.34405 11.8195C9.47861 11.8753 9.59361 11.9697 9.67452 12.0908C9.75543 12.212 9.79861 12.3543 9.79861 12.5C9.79872 12.5969 9.77971 12.6928 9.74268 12.7822C9.70565 12.8717 9.65131 12.953 9.5828 13.0215C9.51428 13.0899 9.43293 13.1441 9.34341 13.1811C9.25388 13.218 9.15795 13.2369 9.06111 13.2367Z" fill="#45556C"/>
<path d="M11.6673 1.66663H5.00065C4.55903 1.66794 4.13587 1.84396 3.8236 2.15624C3.51132 2.46851 3.3353 2.89167 3.33398 3.33329V16.6666C3.3353 17.1082 3.51132 17.5314 3.8236 17.8437C4.13587 18.156 4.55903 18.332 5.00065 18.3333H15.0007C15.4423 18.332 15.8654 18.156 16.1777 17.8437C16.49 17.5314 16.666 17.1082 16.6673 16.6666V6.66663L11.6673 1.66663ZM15.0007 16.6666H5.00065V3.33329H10.834V7.49996H15.0007V16.6666Z" fill="#45556C"/>
</svg>
