<svg width="227" height="42" viewBox="0 0 227 42" fill="none" xmlns="http://www.w3.org/2000/svg">
<path d="M32.7144 20.9207C29.8315 23.1279 27.64 25.6018 26.0594 28.8989C24.7101 31.6647 23.7431 34.8059 21.3238 36.8919C16.0133 41.4706 10.4572 40.4529 5.9545 35.6827C2.03377 31.5574 -0.105356 26.0398 0.00399533 20.334C0.118317 14.8142 2.42472 9.57016 6.40853 5.77185C10.8166 1.56617 15.8674 -0.145607 21.8588 0.00963692C17.6552 1.1906 14.2342 3.17887 11.7843 6.93337C9.40366 10.5075 8.5519 14.8944 9.42066 19.1067C10.4634 24.1543 13.3095 27.5852 17.5 30.352C17.3796 31.096 17.3421 31.3225 17.0797 32.0177C15.3306 31.1192 13.7505 29.9211 12.4103 28.4771C9.05446 24.9819 7.22279 20.2852 7.32093 15.4274C7.4639 10.2709 9.58097 6.13997 13.2531 2.64688C12.3343 3.07826 11.4073 3.60707 10.6479 4.28858C10.5946 4.73723 9.81857 5.43101 9.48473 5.83775C8.78217 6.69368 8.13592 7.59497 7.5503 8.53571C6.91272 9.55216 6.6201 10.3802 6.22227 11.5074C4.1681 17.4224 5.28122 23.984 9.16924 28.8792C10.6075 30.7092 13.27 33.0658 15.4398 33.9455C14.6913 34.5259 13.9181 34.9026 13.0046 35.1647C12.6377 35.2321 12.2675 35.2792 11.8955 35.3058C8.94394 35.5195 6.26005 33.941 4.11469 32.0709C6.42444 35.0291 9.46928 37.083 13.3494 36.2727C15.1509 35.8996 16.7268 34.8117 17.7205 33.2551C20.3324 29.233 17.4961 27.1339 15.035 24.4665C14.2609 23.6277 13.7388 22.2383 13.5095 21.1191C17.0469 23.9751 21.2244 26.8546 25.7358 24.2136C28.1361 22.8085 30.0593 21.8198 32.7144 20.9207Z" fill="#EC003F"/>
<path d="M13.0062 35.1648C9.9833 33.1812 8.07834 31.4838 6.16714 28.2909C3.60398 23.9974 2.86392 18.8481 4.11314 14.0004C4.98072 10.5339 7.60189 6.12045 10.6495 4.2887C10.5962 4.73734 9.82018 5.43112 9.48634 5.83787C8.78378 6.6938 8.13753 7.59509 7.55192 8.53582C6.91434 9.55227 6.62171 10.3803 6.22389 11.5076C4.16972 17.4225 5.28284 23.9841 9.17085 28.8793C10.6091 30.7093 13.2716 33.066 15.4414 33.9456C14.6929 34.5261 13.9197 34.9027 13.0062 35.1648Z" fill="#0F172B"/>
<path d="M42.0005 20.5291C41.9526 21.5087 41.9165 22.7707 41.7818 23.7242C41.1049 28.6536 38.7254 33.1863 35.059 36.5277C30.9579 40.2994 25.5247 42.2604 19.9749 41.9721C18.0129 41.8628 16.0753 41.482 14.2168 40.8405C16.4705 40.7469 18.1185 40.4334 20.1177 39.258C20.4909 39.0384 21.4037 38.2963 21.6983 38.1911C22.5189 37.5435 22.8469 37.3876 23.2717 36.4327C28.2042 36.4572 31.3348 35.6136 35.4386 32.581C36.101 32.0915 37.1403 30.9915 37.8506 30.8251C38.2401 30.4134 38.8357 29.2758 39.1104 28.7523C38.2564 29.5479 37.4015 30.3771 36.4634 31.0687C33.2904 33.4028 29.4351 34.6083 25.5057 34.4951C25.2536 34.4854 25.0014 34.464 24.7511 34.4313C25.0647 33.8745 25.3557 33.3672 25.6259 32.7869C30.1798 32.7873 34.3541 31.2119 37.5768 27.9423C39.8696 25.6164 40.9323 23.5416 42.0005 20.5291Z" fill="#EC003F"/>
<path d="M23.2726 36.4327C28.2052 36.4572 31.3357 35.6137 35.4395 32.581C36.1019 32.0915 37.1412 30.9915 37.8515 30.8251C34.6424 35.8286 27.5409 38.9325 21.6992 38.1911C22.5198 37.5435 22.8479 37.3876 23.2726 36.4327Z" fill="#0F172B"/>
<path d="M31.3478 22.961C34.1801 19.913 38.7059 19.5218 40.0561 15.2167C40.5432 13.6648 40.6065 12.3579 40.4637 10.7522C42.0769 14.6984 42.1989 17.8425 40.5947 21.8931C40.0498 23.2677 39.0051 25.0022 38.0209 26.1115C36.9419 27.6352 34.4422 29.2979 32.8751 30.2838C34.0762 29.0623 36.6219 25.9832 35.8502 24.0757C35.0486 22.0949 31.5538 23.7207 30.1621 24.3085C30.6013 23.7435 30.839 23.4614 31.3478 22.961Z" fill="#EC003F"/>
<path d="M31.3478 22.961C33.0378 22.8975 37.7453 19.496 38.2351 23.6359C38.3454 24.5633 37.9875 25.3496 38.0209 26.1115C36.9419 27.6352 34.4422 29.2979 32.8751 30.2838C34.0762 29.0623 36.6219 25.9832 35.8502 24.0757C35.0486 22.0949 31.5538 23.7207 30.1621 24.3085C30.6013 23.7435 30.839 23.4614 31.3478 22.961Z" fill="#EC003F"/>
<path d="M27.3048 4.50952C27.7919 5.89818 28.2031 7.45907 28.7011 8.9119L33.2712 8.90426C32.0431 9.78674 30.8221 10.6788 29.6075 11.5804C30.0467 13.0656 30.5094 14.5437 30.9947 16.0143C29.8497 15.0771 28.4932 14.1454 27.2795 13.2751C26.2664 13.9062 24.5132 15.2373 23.5661 15.9977C24.0686 14.5691 24.5403 13.041 25.0112 11.5953C23.7622 10.7618 22.5584 9.82446 21.3691 8.90872C22.8639 8.91953 24.3813 8.90026 25.8787 8.89472C26.2999 7.45798 26.8304 5.93144 27.3048 4.50952Z" fill="#EC003F"/>
<path d="M11.0727 10.4243C11.0882 10.5383 11.0524 11.4824 11.0561 11.7076C11.0876 13.6279 11.6679 15.176 13.0826 16.5081C13.5175 16.9177 14.4518 17.5294 14.6858 18.0148C15.5353 19.7772 15.7734 20.9747 16.8538 22.6815C15.4132 21.8462 13.9615 20.7753 12.8148 19.561C12.7396 20.2295 12.7492 20.7791 12.7515 21.4501C12.9919 23.5894 13.328 24.5155 14.2104 26.4296C10.2382 21.9675 8.98897 16.0778 11.0727 10.4243Z" fill="#EC003F"/>
<path d="M21.9492 19.2195C23.2669 18.9163 24.5782 19.7521 24.8692 21.0806C25.1593 22.4092 24.317 23.7209 22.993 24.0013C21.6862 24.2783 20.4011 23.4435 20.1138 22.1311C19.8273 20.8187 20.6461 19.5191 21.9492 19.2195Z" fill="#EC003F"/>
<path d="M35.6451 13.6883C36.7883 13.3831 37.9605 14.0686 38.2623 15.2186C38.5642 16.3685 37.881 17.5465 36.7368 17.8483C35.5954 18.1495 34.4269 17.4641 34.126 16.3165C33.825 15.1689 34.5046 13.9928 35.6451 13.6883Z" fill="#EC003F"/>
<path d="M14.2179 11.4048C15.3858 11.1889 16.5047 11.9717 16.7097 13.148C16.9146 14.3243 16.1269 15.4431 14.9556 15.6393C13.7981 15.8332 12.7017 15.0524 12.4992 13.8899C12.2967 12.7275 13.0639 11.6183 14.2179 11.4048Z" fill="#EC003F"/>
<path d="M52.82 28.16C52.4067 28.16 52.0867 28.0467 51.86 27.82C51.6467 27.58 51.54 27.2533 51.54 26.84V15.2C51.54 14.7733 51.6533 14.4533 51.88 14.24C52.1067 14.0133 52.4267 13.9 52.84 13.9H57.66C59.2067 13.9 60.4 14.2867 61.24 15.06C62.08 15.8333 62.5 16.9133 62.5 18.3C62.5 19.6867 62.08 20.7733 61.24 21.56C60.4 22.3333 59.2067 22.72 57.66 22.72H54.1V26.84C54.1 27.2533 53.9933 27.58 53.78 27.82C53.5667 28.0467 53.2467 28.16 52.82 28.16ZM54.1 20.7H57.26C58.1667 20.7 58.8533 20.5 59.32 20.1C59.7867 19.6867 60.02 19.0867 60.02 18.3C60.02 17.5133 59.7867 16.92 59.32 16.52C58.8533 16.12 58.1667 15.92 57.26 15.92H54.1V20.7ZM66.5981 28.2C65.8915 28.2 65.2581 28.0667 64.6981 27.8C64.1515 27.52 63.7181 27.1467 63.3981 26.68C63.0915 26.2133 62.9381 25.6867 62.9381 25.1C62.9381 24.38 63.1248 23.8133 63.4981 23.4C63.8715 22.9733 64.4781 22.6667 65.3181 22.48C66.1581 22.2933 67.2848 22.2 68.6981 22.2H69.6981V23.64H68.7181C67.8915 23.64 67.2315 23.68 66.7381 23.76C66.2448 23.84 65.8915 23.98 65.6781 24.18C65.4781 24.3667 65.3781 24.6333 65.3781 24.98C65.3781 25.42 65.5315 25.78 65.8381 26.06C66.1448 26.34 66.5715 26.48 67.1181 26.48C67.5581 26.48 67.9448 26.38 68.2781 26.18C68.6248 25.9667 68.8981 25.68 69.0981 25.32C69.2981 24.96 69.3981 24.5467 69.3981 24.08V21.78C69.3981 21.1133 69.2515 20.6333 68.9581 20.34C68.6648 20.0467 68.1715 19.9 67.4781 19.9C67.0915 19.9 66.6715 19.9467 66.2181 20.04C65.7781 20.1333 65.3115 20.2933 64.8181 20.52C64.5648 20.64 64.3381 20.6733 64.1381 20.62C63.9515 20.5667 63.8048 20.46 63.6981 20.3C63.5915 20.1267 63.5381 19.94 63.5381 19.74C63.5381 19.54 63.5915 19.3467 63.6981 19.16C63.8048 18.96 63.9848 18.8133 64.2381 18.72C64.8515 18.4667 65.4381 18.2867 65.9981 18.18C66.5715 18.0733 67.0915 18.02 67.5581 18.02C68.5181 18.02 69.3048 18.1667 69.9181 18.46C70.5448 18.7533 71.0115 19.2 71.3181 19.8C71.6248 20.3867 71.7781 21.1467 71.7781 22.08V26.88C71.7781 27.2933 71.6781 27.6133 71.4781 27.84C71.2781 28.0533 70.9915 28.16 70.6181 28.16C70.2448 28.16 69.9515 28.0533 69.7381 27.84C69.5381 27.6133 69.4381 27.2933 69.4381 26.88V25.92H69.5981C69.5048 26.3867 69.3181 26.7933 69.0381 27.14C68.7715 27.4733 68.4315 27.7333 68.0181 27.92C67.6048 28.1067 67.1315 28.2 66.5981 28.2ZM75.0556 28.16C74.6556 28.16 74.349 28.0533 74.1356 27.84C73.9223 27.6133 73.8156 27.2933 73.8156 26.88V15C73.8156 14.5867 73.9223 14.2733 74.1356 14.06C74.349 13.8467 74.6556 13.74 75.0556 13.74C75.4556 13.74 75.7623 13.8467 75.9756 14.06C76.2023 14.2733 76.3156 14.5867 76.3156 15V22.38H76.3556L79.6556 18.9C79.9223 18.6333 80.1556 18.4267 80.3556 18.28C80.5556 18.1333 80.829 18.06 81.1756 18.06C81.5223 18.06 81.7823 18.1533 81.9556 18.34C82.1423 18.5133 82.2356 18.7267 82.2356 18.98C82.2356 19.2333 82.1156 19.4867 81.8756 19.74L78.3956 23.42V22.38L82.2156 26.5C82.4556 26.7533 82.5623 27.0133 82.5356 27.28C82.5223 27.5333 82.4156 27.7467 82.2156 27.92C82.0156 28.08 81.7623 28.16 81.4556 28.16C81.0823 28.16 80.7823 28.0867 80.5556 27.94C80.3423 27.7933 80.1023 27.5733 79.8356 27.28L76.3556 23.64H76.3156V26.88C76.3156 27.7333 75.8956 28.16 75.0556 28.16ZM85.2783 28.14C84.8783 28.14 84.5716 28.02 84.3583 27.78C84.1449 27.54 84.0383 27.2067 84.0383 26.78V19.44C84.0383 19 84.1449 18.6667 84.3583 18.44C84.5716 18.2 84.8783 18.08 85.2783 18.08C85.6783 18.08 85.9849 18.2 86.1983 18.44C86.4249 18.6667 86.5383 19 86.5383 19.44V26.78C86.5383 27.2067 86.4316 27.54 86.2183 27.78C86.0049 28.02 85.6916 28.14 85.2783 28.14ZM85.2783 16.22C84.8116 16.22 84.4449 16.1067 84.1783 15.88C83.9249 15.64 83.7983 15.3133 83.7983 14.9C83.7983 14.4733 83.9249 14.1467 84.1783 13.92C84.4449 13.6933 84.8116 13.58 85.2783 13.58C85.7583 13.58 86.1249 13.6933 86.3783 13.92C86.6316 14.1467 86.7583 14.4733 86.7583 14.9C86.7583 15.3133 86.6316 15.64 86.3783 15.88C86.1249 16.1067 85.7583 16.22 85.2783 16.22ZM92.2159 28.2C91.6426 28.2 91.0359 28.14 90.3959 28.02C89.7559 27.9 89.1826 27.6933 88.6759 27.4C88.4626 27.2667 88.3093 27.1133 88.2159 26.94C88.1359 26.7533 88.1026 26.5733 88.1159 26.4C88.1426 26.2133 88.2093 26.0533 88.3159 25.92C88.4359 25.7867 88.5826 25.7 88.7559 25.66C88.9426 25.62 89.1426 25.6533 89.3559 25.76C89.8893 26.0133 90.3893 26.1933 90.8559 26.3C91.3226 26.3933 91.7826 26.44 92.2359 26.44C92.8759 26.44 93.3493 26.3333 93.6559 26.12C93.9759 25.8933 94.1359 25.6 94.1359 25.24C94.1359 24.9333 94.0293 24.7 93.8159 24.54C93.6159 24.3667 93.3093 24.24 92.8959 24.16L90.8959 23.78C90.0693 23.62 89.4359 23.32 88.9959 22.88C88.5693 22.4267 88.3559 21.8467 88.3559 21.14C88.3559 20.5 88.5293 19.9467 88.8759 19.48C89.2359 19.0133 89.7293 18.6533 90.3559 18.4C90.9826 18.1467 91.7026 18.02 92.5159 18.02C93.1026 18.02 93.6493 18.0867 94.1559 18.22C94.6759 18.34 95.1759 18.5333 95.6559 18.8C95.8559 18.9067 95.9893 19.0467 96.0559 19.22C96.1359 19.3933 96.1559 19.5733 96.1159 19.76C96.0759 19.9333 95.9959 20.0933 95.8759 20.24C95.7559 20.3733 95.6026 20.46 95.4159 20.5C95.2426 20.5267 95.0426 20.4867 94.8159 20.38C94.4026 20.1667 94.0026 20.0133 93.6159 19.92C93.2426 19.8267 92.8826 19.78 92.5359 19.78C91.8826 19.78 91.3959 19.8933 91.0759 20.12C90.7693 20.3467 90.6159 20.6467 90.6159 21.02C90.6159 21.3 90.7093 21.5333 90.8959 21.72C91.0826 21.9067 91.3693 22.0333 91.7559 22.1L93.7559 22.48C94.6226 22.64 95.2759 22.9333 95.7159 23.36C96.1693 23.7867 96.3959 24.36 96.3959 25.08C96.3959 26.0533 96.0159 26.82 95.2559 27.38C94.4959 27.9267 93.4826 28.2 92.2159 28.2ZM102.284 28.2C101.417 28.2 100.691 28.0533 100.104 27.76C99.5306 27.4667 99.1039 27.04 98.8239 26.48C98.5439 25.9067 98.4039 25.2 98.4039 24.36V20.1H97.3639C97.0439 20.1 96.7972 20.02 96.6239 19.86C96.4506 19.6867 96.3639 19.4533 96.3639 19.16C96.3639 18.8533 96.4506 18.62 96.6239 18.46C96.7972 18.3 97.0439 18.22 97.3639 18.22H98.4039V16.4C98.4039 15.9867 98.5106 15.6733 98.7239 15.46C98.9506 15.2467 99.2639 15.14 99.6639 15.14C100.064 15.14 100.371 15.2467 100.584 15.46C100.797 15.6733 100.904 15.9867 100.904 16.4V18.22H103.024C103.344 18.22 103.591 18.3 103.764 18.46C103.937 18.62 104.024 18.8533 104.024 19.16C104.024 19.4533 103.937 19.6867 103.764 19.86C103.591 20.02 103.344 20.1 103.024 20.1H100.904V24.22C100.904 24.86 101.044 25.34 101.324 25.66C101.604 25.98 102.057 26.14 102.684 26.14C102.911 26.14 103.111 26.12 103.284 26.08C103.457 26.04 103.611 26.0133 103.744 26C103.904 25.9867 104.037 26.04 104.144 26.16C104.251 26.2667 104.304 26.4933 104.304 26.84C104.304 27.1067 104.257 27.3467 104.164 27.56C104.084 27.76 103.931 27.9 103.704 27.98C103.531 28.0333 103.304 28.08 103.024 28.12C102.744 28.1733 102.497 28.2 102.284 28.2ZM108.2 28.2C107.493 28.2 106.86 28.0667 106.3 27.8C105.753 27.52 105.32 27.1467 105 26.68C104.693 26.2133 104.54 25.6867 104.54 25.1C104.54 24.38 104.726 23.8133 105.1 23.4C105.473 22.9733 106.08 22.6667 106.92 22.48C107.76 22.2933 108.886 22.2 110.3 22.2H111.3V23.64H110.32C109.493 23.64 108.833 23.68 108.34 23.76C107.846 23.84 107.493 23.98 107.28 24.18C107.08 24.3667 106.98 24.6333 106.98 24.98C106.98 25.42 107.133 25.78 107.44 26.06C107.746 26.34 108.173 26.48 108.72 26.48C109.16 26.48 109.546 26.38 109.88 26.18C110.226 25.9667 110.5 25.68 110.7 25.32C110.9 24.96 111 24.5467 111 24.08V21.78C111 21.1133 110.853 20.6333 110.56 20.34C110.266 20.0467 109.773 19.9 109.08 19.9C108.693 19.9 108.273 19.9467 107.82 20.04C107.38 20.1333 106.913 20.2933 106.42 20.52C106.166 20.64 105.94 20.6733 105.74 20.62C105.553 20.5667 105.406 20.46 105.3 20.3C105.193 20.1267 105.14 19.94 105.14 19.74C105.14 19.54 105.193 19.3467 105.3 19.16C105.406 18.96 105.586 18.8133 105.84 18.72C106.453 18.4667 107.04 18.2867 107.6 18.18C108.173 18.0733 108.693 18.02 109.16 18.02C110.12 18.02 110.906 18.1667 111.52 18.46C112.146 18.7533 112.613 19.2 112.92 19.8C113.226 20.3867 113.38 21.1467 113.38 22.08V26.88C113.38 27.2933 113.28 27.6133 113.08 27.84C112.88 28.0533 112.593 28.16 112.22 28.16C111.846 28.16 111.553 28.0533 111.34 27.84C111.14 27.6133 111.04 27.2933 111.04 26.88V25.92H111.2C111.106 26.3867 110.92 26.7933 110.64 27.14C110.373 27.4733 110.033 27.7333 109.62 27.92C109.206 28.1067 108.733 28.2 108.2 28.2ZM116.657 28.16C116.257 28.16 115.951 28.0533 115.737 27.84C115.524 27.6133 115.417 27.2933 115.417 26.88V19.32C115.417 18.9067 115.524 18.5933 115.737 18.38C115.951 18.1667 116.251 18.06 116.637 18.06C117.024 18.06 117.324 18.1667 117.537 18.38C117.751 18.5933 117.857 18.9067 117.857 19.32V20.68L117.637 20.18C117.931 19.4733 118.384 18.94 118.997 18.58C119.624 18.2067 120.331 18.02 121.117 18.02C121.904 18.02 122.551 18.1667 123.057 18.46C123.564 18.7533 123.944 19.2 124.197 19.8C124.451 20.3867 124.577 21.1333 124.577 22.04V26.88C124.577 27.2933 124.471 27.6133 124.257 27.84C124.044 28.0533 123.737 28.16 123.337 28.16C122.937 28.16 122.624 28.0533 122.397 27.84C122.184 27.6133 122.077 27.2933 122.077 26.88V22.16C122.077 21.4 121.931 20.8467 121.637 20.5C121.357 20.1533 120.917 19.98 120.317 19.98C119.584 19.98 118.997 20.2133 118.557 20.68C118.131 21.1333 117.917 21.74 117.917 22.5V26.88C117.917 27.7333 117.497 28.16 116.657 28.16ZM137.386 28.16C137.026 28.16 136.726 28.08 136.486 27.92C136.259 27.7467 136.073 27.4933 135.926 27.16L130.706 15.44C130.559 15.1067 130.519 14.8133 130.586 14.56C130.653 14.3067 130.793 14.1067 131.006 13.96C131.219 13.8133 131.473 13.74 131.766 13.74C132.153 13.74 132.439 13.8267 132.626 14C132.826 14.16 132.993 14.4067 133.126 14.74L137.866 25.72H137.006L141.726 14.72C141.873 14.4 142.046 14.16 142.246 14C142.446 13.8267 142.726 13.74 143.086 13.74C143.379 13.74 143.619 13.8133 143.806 13.96C144.006 14.1067 144.133 14.3067 144.186 14.56C144.239 14.8133 144.193 15.1067 144.046 15.44L138.826 27.16C138.679 27.4933 138.493 27.7467 138.266 27.92C138.053 28.08 137.759 28.16 137.386 28.16ZM148.514 28.2C147.501 28.2 146.621 27.9933 145.874 27.58C145.127 27.1667 144.547 26.58 144.134 25.82C143.721 25.0467 143.514 24.14 143.514 23.1C143.514 22.3133 143.627 21.6133 143.854 21C144.094 20.3733 144.434 19.84 144.874 19.4C145.314 18.9467 145.841 18.6067 146.454 18.38C147.067 18.14 147.754 18.02 148.514 18.02C149.527 18.02 150.407 18.2267 151.154 18.64C151.901 19.0533 152.481 19.64 152.894 20.4C153.307 21.16 153.514 22.06 153.514 23.1C153.514 23.8867 153.394 24.5933 153.154 25.22C152.927 25.8467 152.594 26.3867 152.154 26.84C151.714 27.28 151.187 27.62 150.574 27.86C149.961 28.0867 149.274 28.2 148.514 28.2ZM148.514 26.3C149.007 26.3 149.441 26.18 149.814 25.94C150.187 25.7 150.474 25.3467 150.674 24.88C150.887 24.4 150.994 23.8067 150.994 23.1C150.994 22.0333 150.767 21.24 150.314 20.72C149.861 20.1867 149.261 19.92 148.514 19.92C148.021 19.92 147.587 20.04 147.214 20.28C146.841 20.5067 146.547 20.86 146.334 21.34C146.134 21.8067 146.034 22.3933 146.034 23.1C146.034 24.1533 146.261 24.9533 146.714 25.5C147.167 26.0333 147.767 26.3 148.514 26.3ZM158.417 28.2C157.311 28.2 156.477 27.8867 155.917 27.26C155.357 26.62 155.077 25.6867 155.077 24.46V15C155.077 14.5867 155.184 14.2733 155.397 14.06C155.611 13.8467 155.917 13.74 156.317 13.74C156.717 13.74 157.024 13.8467 157.237 14.06C157.464 14.2733 157.577 14.5867 157.577 15V24.34C157.577 24.9533 157.704 25.4067 157.957 25.7C158.224 25.9933 158.597 26.14 159.077 26.14C159.184 26.14 159.284 26.14 159.377 26.14C159.471 26.1267 159.564 26.1133 159.657 26.1C159.844 26.0733 159.971 26.1267 160.037 26.26C160.104 26.38 160.137 26.6333 160.137 27.02C160.137 27.3533 160.071 27.6133 159.937 27.8C159.804 27.9867 159.584 28.1 159.277 28.14C159.144 28.1533 159.004 28.1667 158.857 28.18C158.711 28.1933 158.564 28.2 158.417 28.2ZM164.504 28.2C163.691 28.2 163.017 28.0533 162.484 27.76C161.951 27.4533 161.551 27 161.284 26.4C161.031 25.8 160.904 25.0533 160.904 24.16V19.32C160.904 18.8933 161.011 18.58 161.224 18.38C161.437 18.1667 161.744 18.06 162.144 18.06C162.544 18.06 162.851 18.1667 163.064 18.38C163.291 18.58 163.404 18.8933 163.404 19.32V24.2C163.404 24.8933 163.544 25.4067 163.824 25.74C164.104 26.0733 164.551 26.24 165.164 26.24C165.831 26.24 166.377 26.0133 166.804 25.56C167.231 25.0933 167.444 24.48 167.444 23.72V19.32C167.444 18.8933 167.551 18.58 167.764 18.38C167.977 18.1667 168.284 18.06 168.684 18.06C169.084 18.06 169.391 18.1667 169.604 18.38C169.831 18.58 169.944 18.8933 169.944 19.32V26.88C169.944 27.7333 169.537 28.16 168.724 28.16C168.337 28.16 168.037 28.0533 167.824 27.84C167.611 27.6133 167.504 27.2933 167.504 26.88V25.36L167.784 25.96C167.504 26.68 167.077 27.2333 166.504 27.62C165.944 28.0067 165.277 28.2 164.504 28.2ZM173.286 28.16C172.886 28.16 172.579 28.0533 172.366 27.84C172.153 27.6133 172.046 27.2933 172.046 26.88V19.32C172.046 18.9067 172.153 18.5933 172.366 18.38C172.579 18.1667 172.879 18.06 173.266 18.06C173.653 18.06 173.953 18.1667 174.166 18.38C174.379 18.5933 174.486 18.9067 174.486 19.32V20.68L174.266 20.18C174.559 19.4733 175.013 18.94 175.626 18.58C176.253 18.2067 176.959 18.02 177.746 18.02C178.533 18.02 179.179 18.1667 179.686 18.46C180.193 18.7533 180.573 19.2 180.826 19.8C181.079 20.3867 181.206 21.1333 181.206 22.04V26.88C181.206 27.2933 181.099 27.6133 180.886 27.84C180.673 28.0533 180.366 28.16 179.966 28.16C179.566 28.16 179.253 28.0533 179.026 27.84C178.813 27.6133 178.706 27.2933 178.706 26.88V22.16C178.706 21.4 178.559 20.8467 178.266 20.5C177.986 20.1533 177.546 19.98 176.946 19.98C176.213 19.98 175.626 20.2133 175.186 20.68C174.759 21.1333 174.546 21.74 174.546 22.5V26.88C174.546 27.7333 174.126 28.16 173.286 28.16ZM187.725 28.2C186.859 28.2 186.132 28.0533 185.545 27.76C184.972 27.4667 184.545 27.04 184.265 26.48C183.985 25.9067 183.845 25.2 183.845 24.36V20.1H182.805C182.485 20.1 182.239 20.02 182.065 19.86C181.892 19.6867 181.805 19.4533 181.805 19.16C181.805 18.8533 181.892 18.62 182.065 18.46C182.239 18.3 182.485 18.22 182.805 18.22H183.845V16.4C183.845 15.9867 183.952 15.6733 184.165 15.46C184.392 15.2467 184.705 15.14 185.105 15.14C185.505 15.14 185.812 15.2467 186.025 15.46C186.239 15.6733 186.345 15.9867 186.345 16.4V18.22H188.465C188.785 18.22 189.032 18.3 189.205 18.46C189.379 18.62 189.465 18.8533 189.465 19.16C189.465 19.4533 189.379 19.6867 189.205 19.86C189.032 20.02 188.785 20.1 188.465 20.1H186.345V24.22C186.345 24.86 186.485 25.34 186.765 25.66C187.045 25.98 187.499 26.14 188.125 26.14C188.352 26.14 188.552 26.12 188.725 26.08C188.899 26.04 189.052 26.0133 189.185 26C189.345 25.9867 189.479 26.04 189.585 26.16C189.692 26.2667 189.745 26.4933 189.745 26.84C189.745 27.1067 189.699 27.3467 189.605 27.56C189.525 27.76 189.372 27.9 189.145 27.98C188.972 28.0333 188.745 28.08 188.465 28.12C188.185 28.1733 187.939 28.2 187.725 28.2ZM195.143 28.2C194.037 28.2 193.083 27.9933 192.283 27.58C191.483 27.1667 190.863 26.58 190.423 25.82C189.997 25.06 189.783 24.16 189.783 23.12C189.783 22.1067 189.99 21.22 190.403 20.46C190.83 19.7 191.41 19.1067 192.143 18.68C192.89 18.24 193.737 18.02 194.683 18.02C195.377 18.02 195.997 18.1333 196.543 18.36C197.103 18.5867 197.577 18.9133 197.963 19.34C198.363 19.7667 198.663 20.2867 198.863 20.9C199.077 21.5 199.183 22.18 199.183 22.94C199.183 23.18 199.097 23.3667 198.923 23.5C198.763 23.62 198.53 23.68 198.223 23.68H191.803V22.24H197.423L197.103 22.54C197.103 21.9267 197.01 21.4133 196.823 21C196.65 20.5867 196.39 20.2733 196.043 20.06C195.71 19.8333 195.29 19.72 194.783 19.72C194.223 19.72 193.743 19.8533 193.343 20.12C192.957 20.3733 192.657 20.74 192.443 21.22C192.243 21.6867 192.143 22.2467 192.143 22.9V23.04C192.143 24.1333 192.397 24.9533 192.903 25.5C193.423 26.0333 194.183 26.3 195.183 26.3C195.53 26.3 195.917 26.26 196.343 26.18C196.783 26.0867 197.197 25.9333 197.583 25.72C197.863 25.56 198.11 25.4933 198.323 25.52C198.537 25.5333 198.703 25.6067 198.823 25.74C198.957 25.8733 199.037 26.04 199.063 26.24C199.09 26.4267 199.05 26.62 198.943 26.82C198.85 27.02 198.683 27.1933 198.443 27.34C197.977 27.6333 197.437 27.8533 196.823 28C196.223 28.1333 195.663 28.2 195.143 28.2ZM205.483 28.2C204.377 28.2 203.423 27.9933 202.623 27.58C201.823 27.1667 201.203 26.58 200.763 25.82C200.337 25.06 200.123 24.16 200.123 23.12C200.123 22.1067 200.33 21.22 200.743 20.46C201.17 19.7 201.75 19.1067 202.483 18.68C203.23 18.24 204.077 18.02 205.023 18.02C205.717 18.02 206.337 18.1333 206.883 18.36C207.443 18.5867 207.917 18.9133 208.303 19.34C208.703 19.7667 209.003 20.2867 209.203 20.9C209.417 21.5 209.523 22.18 209.523 22.94C209.523 23.18 209.437 23.3667 209.263 23.5C209.103 23.62 208.87 23.68 208.563 23.68H202.143V22.24H207.763L207.443 22.54C207.443 21.9267 207.35 21.4133 207.163 21C206.99 20.5867 206.73 20.2733 206.383 20.06C206.05 19.8333 205.63 19.72 205.123 19.72C204.563 19.72 204.083 19.8533 203.683 20.12C203.297 20.3733 202.997 20.74 202.783 21.22C202.583 21.6867 202.483 22.2467 202.483 22.9V23.04C202.483 24.1333 202.737 24.9533 203.243 25.5C203.763 26.0333 204.523 26.3 205.523 26.3C205.87 26.3 206.257 26.26 206.683 26.18C207.123 26.0867 207.537 25.9333 207.923 25.72C208.203 25.56 208.45 25.4933 208.663 25.52C208.877 25.5333 209.043 25.6067 209.163 25.74C209.297 25.8733 209.377 26.04 209.403 26.24C209.43 26.4267 209.39 26.62 209.283 26.82C209.19 27.02 209.023 27.1933 208.783 27.34C208.317 27.6333 207.777 27.8533 207.163 28C206.563 28.1333 206.003 28.2 205.483 28.2ZM212.283 28.16C211.87 28.16 211.55 28.0533 211.323 27.84C211.11 27.6133 211.003 27.2933 211.003 26.88V19.32C211.003 18.9067 211.11 18.5933 211.323 18.38C211.536 18.1667 211.836 18.06 212.223 18.06C212.61 18.06 212.91 18.1667 213.123 18.38C213.336 18.5933 213.443 18.9067 213.443 19.32V20.58H213.243C213.43 19.78 213.796 19.1733 214.343 18.76C214.89 18.3467 215.616 18.1 216.523 18.02C216.803 17.9933 217.023 18.0667 217.183 18.24C217.356 18.4 217.456 18.6533 217.483 19C217.51 19.3333 217.43 19.6067 217.243 19.82C217.07 20.02 216.803 20.14 216.443 20.18L216.003 20.22C215.19 20.3 214.576 20.5533 214.163 20.98C213.75 21.3933 213.543 21.98 213.543 22.74V26.88C213.543 27.2933 213.436 27.6133 213.223 27.84C213.01 28.0533 212.696 28.16 212.283 28.16ZM221.818 28.2C221.244 28.2 220.638 28.14 219.998 28.02C219.358 27.9 218.784 27.6933 218.278 27.4C218.064 27.2667 217.911 27.1133 217.818 26.94C217.738 26.7533 217.704 26.5733 217.718 26.4C217.744 26.2133 217.811 26.0533 217.918 25.92C218.038 25.7867 218.184 25.7 218.358 25.66C218.544 25.62 218.744 25.6533 218.958 25.76C219.491 26.0133 219.991 26.1933 220.458 26.3C220.924 26.3933 221.384 26.44 221.838 26.44C222.478 26.44 222.951 26.3333 223.258 26.12C223.578 25.8933 223.738 25.6 223.738 25.24C223.738 24.9333 223.631 24.7 223.418 24.54C223.218 24.3667 222.911 24.24 222.498 24.16L220.498 23.78C219.671 23.62 219.038 23.32 218.598 22.88C218.171 22.4267 217.958 21.8467 217.958 21.14C217.958 20.5 218.131 19.9467 218.478 19.48C218.838 19.0133 219.331 18.6533 219.958 18.4C220.584 18.1467 221.304 18.02 222.118 18.02C222.704 18.02 223.251 18.0867 223.758 18.22C224.278 18.34 224.778 18.5333 225.258 18.8C225.458 18.9067 225.591 19.0467 225.658 19.22C225.738 19.3933 225.758 19.5733 225.718 19.76C225.678 19.9333 225.598 20.0933 225.478 20.24C225.358 20.3733 225.204 20.46 225.018 20.5C224.844 20.5267 224.644 20.4867 224.418 20.38C224.004 20.1667 223.604 20.0133 223.218 19.92C222.844 19.8267 222.484 19.78 222.138 19.78C221.484 19.78 220.998 19.8933 220.678 20.12C220.371 20.3467 220.218 20.6467 220.218 21.02C220.218 21.3 220.311 21.5333 220.498 21.72C220.684 21.9067 220.971 22.0333 221.358 22.1L223.358 22.48C224.224 22.64 224.878 22.9333 225.318 23.36C225.771 23.7867 225.998 24.36 225.998 25.08C225.998 26.0533 225.618 26.82 224.858 27.38C224.098 27.9267 223.084 28.2 221.818 28.2Z" fill="#0F172B"/>
</svg>
