<svg width="32" height="32" viewBox="0 0 32 32" fill="none" xmlns="http://www.w3.org/2000/svg">
<rect width="32" height="32" rx="8" fill="url(#paint0_linear_66_5)"/>
<path d="M6.29744 10.8182H8.95227L11.7563 17.6591H11.8756L14.6795 10.8182H17.3344V21H15.2463V14.3729H15.1618L12.5268 20.9503H11.105L8.47003 14.348H8.38551V21H6.29744V10.8182ZM18.408 21V10.8182H22.425C23.1973 10.8182 23.8552 10.9657 24.3988 11.2607C24.9423 11.5523 25.3566 11.9583 25.6417 12.4787C25.93 12.9957 26.0742 13.5923 26.0742 14.2685C26.0742 14.9446 25.9284 15.5412 25.6367 16.0582C25.345 16.5753 24.9224 16.978 24.3689 17.2663C23.8187 17.5547 23.1525 17.6989 22.3703 17.6989H19.81V15.9737H22.0223C22.4366 15.9737 22.778 15.9025 23.0465 15.7599C23.3183 15.6141 23.5204 15.4136 23.653 15.1584C23.7889 14.8999 23.8569 14.6032 23.8569 14.2685C23.8569 13.9304 23.7889 13.6354 23.653 13.3835C23.5204 13.1283 23.3183 12.9311 23.0465 12.7919C22.7747 12.6494 22.43 12.5781 22.0124 12.5781H20.5607V21H18.408Z" fill="white"/>
<defs>
<linearGradient id="paint0_linear_66_5" x1="5.13333" y1="-14.3256" x2="43.6539" y2="-0.522393" gradientUnits="userSpaceOnUse">
<stop stop-color="#EEAD2B"/>
<stop offset="1" stop-color="#E98D0C"/>
</linearGradient>
</defs>
</svg>
