<svg width="141" height="32" viewBox="0 0 141 32" fill="none" xmlns="http://www.w3.org/2000/svg">
<rect width="32" height="32" rx="8" fill="url(#paint0_linear_68_475)"/>
<path d="M6.29744 10.8182H8.95227L11.7563 17.6591H11.8756L14.6795 10.8182H17.3344V21H15.2463V14.3729H15.1618L12.5268 20.9503H11.105L8.47003 14.348H8.38551V21H6.29744V10.8182ZM18.408 21V10.8182H22.425C23.1973 10.8182 23.8552 10.9657 24.3988 11.2607C24.9423 11.5523 25.3566 11.9583 25.6417 12.4787C25.93 12.9957 26.0742 13.5923 26.0742 14.2685C26.0742 14.9446 25.9284 15.5412 25.6367 16.0582C25.345 16.5753 24.9224 16.978 24.3689 17.2663C23.8187 17.5547 23.1525 17.6989 22.3703 17.6989H19.81V15.9737H22.0223C22.4366 15.9737 22.778 15.9025 23.0465 15.7599C23.3183 15.6141 23.5204 15.4136 23.653 15.1584C23.7889 14.8999 23.8569 14.6032 23.8569 14.2685C23.8569 13.9304 23.7889 13.6354 23.653 13.3835C23.5204 13.1283 23.3183 12.9311 23.0465 12.7919C22.7747 12.6494 22.43 12.5781 22.0124 12.5781H20.5607V21H18.408Z" fill="white"/>
<path d="M45.1477 10.3636H47.7273L51.1818 18.7955H51.3182L54.7727 10.3636H57.3523V22H55.3295V14.0057H55.2216L52.0057 21.9659H50.4943L47.2784 13.9886H47.1705V22H45.1477V10.3636ZM61.6682 22.1761C61.1152 22.1761 60.617 22.0777 60.1739 21.8807C59.7345 21.6799 59.386 21.3845 59.1284 20.9943C58.8746 20.6042 58.7477 20.1231 58.7477 19.5511C58.7477 19.0587 58.8386 18.6515 59.0205 18.3295C59.2023 18.0076 59.4504 17.75 59.7648 17.5568C60.0792 17.3636 60.4333 17.2178 60.8273 17.1193C61.225 17.017 61.636 16.9432 62.0602 16.8977C62.5716 16.8447 62.9864 16.7973 63.3045 16.7557C63.6227 16.7102 63.8538 16.642 63.9977 16.5511C64.1455 16.4564 64.2193 16.3106 64.2193 16.1136V16.0795C64.2193 15.6515 64.0924 15.3201 63.8386 15.0852C63.5848 14.8504 63.2193 14.733 62.742 14.733C62.2383 14.733 61.8386 14.8428 61.5432 15.0625C61.2515 15.2822 61.0545 15.5417 60.9523 15.8409L59.0318 15.5682C59.1833 15.0379 59.4333 14.5947 59.7818 14.2386C60.1303 13.8788 60.5564 13.6098 61.0602 13.4318C61.564 13.25 62.1208 13.1591 62.7307 13.1591C63.1511 13.1591 63.5697 13.2083 63.9864 13.3068C64.403 13.4053 64.7837 13.5682 65.1284 13.7955C65.4731 14.0189 65.7496 14.3239 65.958 14.7102C66.1701 15.0966 66.2761 15.5795 66.2761 16.1591V22H64.2989V20.8011H64.2307C64.1057 21.0436 63.9295 21.2708 63.7023 21.483C63.4788 21.6913 63.1966 21.8598 62.8557 21.9886C62.5186 22.1136 62.1227 22.1761 61.6682 22.1761ZM62.2023 20.6648C62.6152 20.6648 62.9731 20.5833 63.2761 20.4205C63.5792 20.2538 63.8121 20.0341 63.975 19.7614C64.1417 19.4886 64.225 19.1913 64.225 18.8693V17.8409C64.1606 17.8939 64.0508 17.9432 63.8955 17.9886C63.7439 18.0341 63.5735 18.0739 63.3841 18.108C63.1947 18.142 63.0072 18.1723 62.8216 18.1989C62.636 18.2254 62.475 18.2481 62.3386 18.267C62.0318 18.3087 61.7572 18.3769 61.5148 18.4716C61.2723 18.5663 61.0811 18.6989 60.9409 18.8693C60.8008 19.036 60.7307 19.2519 60.7307 19.517C60.7307 19.8958 60.8689 20.1818 61.1455 20.375C61.422 20.5682 61.7742 20.6648 62.2023 20.6648ZM74.842 15.5795L72.967 15.7841C72.914 15.5947 72.8212 15.4167 72.6886 15.25C72.5598 15.0833 72.3856 14.9489 72.1659 14.8466C71.9462 14.7443 71.6773 14.6932 71.3591 14.6932C70.9311 14.6932 70.5712 14.786 70.2795 14.9716C69.9917 15.1572 69.8496 15.3977 69.8534 15.6932C69.8496 15.947 69.9424 16.1534 70.1318 16.3125C70.325 16.4716 70.6432 16.6023 71.0864 16.7045L72.575 17.0227C73.4008 17.2008 74.0144 17.483 74.4159 17.8693C74.8212 18.2557 75.0258 18.7614 75.0295 19.3864C75.0258 19.9356 74.8648 20.4205 74.5466 20.8409C74.2322 21.2576 73.7947 21.5833 73.2341 21.8182C72.6735 22.053 72.0295 22.1705 71.3023 22.1705C70.2341 22.1705 69.3742 21.947 68.7227 21.5C68.0712 21.0492 67.683 20.4223 67.558 19.6193L69.5636 19.4261C69.6545 19.8201 69.8477 20.1174 70.1432 20.3182C70.4386 20.5189 70.8231 20.6193 71.2966 20.6193C71.7852 20.6193 72.1773 20.5189 72.4727 20.3182C72.772 20.1174 72.9216 19.8693 72.9216 19.5739C72.9216 19.3239 72.825 19.1174 72.6318 18.9545C72.4424 18.7917 72.147 18.6667 71.7455 18.5795L70.2568 18.267C69.4197 18.0928 68.8004 17.7992 68.3989 17.3864C67.9973 16.9697 67.7985 16.4432 67.8023 15.8068C67.7985 15.2689 67.9443 14.803 68.2398 14.4091C68.539 14.0114 68.9538 13.7045 69.4841 13.4886C70.0182 13.2689 70.6337 13.1591 71.3307 13.1591C72.3534 13.1591 73.1583 13.3769 73.7455 13.8125C74.3364 14.2481 74.7019 14.8371 74.842 15.5795ZM76.3256 13.2727H78.3824V22.5C78.3824 23.1288 78.2631 23.6477 78.0244 24.0568C77.7858 24.4659 77.4411 24.7708 76.9903 24.9716C76.5396 25.1723 75.9922 25.2727 75.3483 25.2727C75.2725 25.2727 75.2025 25.2708 75.1381 25.267C75.0737 25.267 75.0036 25.2652 74.9278 25.2614V23.5852C74.9847 23.589 75.0358 23.5909 75.0812 23.5909C75.1267 23.5947 75.1741 23.5966 75.2233 23.5966C75.6172 23.5966 75.8994 23.5 76.0699 23.3068C76.2403 23.1174 76.3256 22.839 76.3256 22.4716V13.2727ZM77.3483 12.0341C77.0187 12.0341 76.7366 11.9261 76.5017 11.7102C76.2706 11.4905 76.1551 11.2273 76.1551 10.9205C76.1551 10.6098 76.2706 10.3466 76.5017 10.1307C76.7366 9.91098 77.0187 9.80114 77.3483 9.80114C77.6741 9.80114 77.9525 9.91098 78.1835 10.1307C78.4184 10.3466 78.5358 10.6098 78.5358 10.9205C78.5358 11.2273 78.4184 11.4905 78.1835 11.7102C77.9525 11.9261 77.6741 12.0341 77.3483 12.0341ZM80.0974 22V13.2727H82.1543V22H80.0974ZM81.1315 12.0341C80.8058 12.0341 80.5255 11.9261 80.2906 11.7102C80.0558 11.4905 79.9384 11.2273 79.9384 10.9205C79.9384 10.6098 80.0558 10.3466 80.2906 10.1307C80.5255 9.91098 80.8058 9.80114 81.1315 9.80114C81.4611 9.80114 81.7414 9.91098 81.9724 10.1307C82.2073 10.3466 82.3247 10.6098 82.3247 10.9205C82.3247 11.2273 82.2073 11.4905 81.9724 11.7102C81.7414 11.9261 81.4611 12.0341 81.1315 12.0341ZM87.108 22.1534C86.4223 22.1534 85.8087 21.9773 85.267 21.625C84.7254 21.2727 84.2973 20.7614 83.983 20.0909C83.6686 19.4205 83.5114 18.6061 83.5114 17.6477C83.5114 16.678 83.6705 15.8598 83.9886 15.1932C84.3106 14.5227 84.7443 14.017 85.2898 13.6761C85.8352 13.3314 86.4432 13.1591 87.1136 13.1591C87.625 13.1591 88.0455 13.2462 88.375 13.4205C88.7045 13.5909 88.9659 13.7973 89.1591 14.0398C89.3523 14.2784 89.5019 14.5038 89.608 14.7159H89.6932V10.3636H91.7557V22H89.733V20.625H89.608C89.5019 20.8371 89.3485 21.0625 89.1477 21.3011C88.947 21.536 88.6818 21.7367 88.3523 21.9034C88.0227 22.0701 87.608 22.1534 87.108 22.1534ZM87.6818 20.4659C88.1174 20.4659 88.4886 20.3485 88.7955 20.1136C89.1023 19.875 89.3352 19.5436 89.4943 19.1193C89.6534 18.6951 89.733 18.2008 89.733 17.6364C89.733 17.072 89.6534 16.5814 89.4943 16.1648C89.339 15.7481 89.108 15.4242 88.8011 15.1932C88.4981 14.9621 88.125 14.8466 87.6818 14.8466C87.2235 14.8466 86.8409 14.9659 86.5341 15.2045C86.2273 15.4432 85.9962 15.7727 85.8409 16.1932C85.6856 16.6136 85.608 17.0947 85.608 17.6364C85.608 18.1818 85.6856 18.6686 85.8409 19.0966C86 19.5208 86.233 19.8561 86.5398 20.1023C86.8504 20.3447 87.2311 20.4659 87.6818 20.4659ZM97.2071 22V10.3636H101.571C102.465 10.3636 103.215 10.5303 103.821 10.8636C104.431 11.197 104.891 11.6553 105.201 12.2386C105.516 12.8182 105.673 13.4773 105.673 14.2159C105.673 14.9621 105.516 15.625 105.201 16.2045C104.887 16.7841 104.423 17.2405 103.809 17.5739C103.196 17.9034 102.44 18.0682 101.542 18.0682H98.6503V16.3352H101.258C101.781 16.3352 102.209 16.2443 102.542 16.0625C102.876 15.8807 103.122 15.6307 103.281 15.3125C103.444 14.9943 103.525 14.6288 103.525 14.2159C103.525 13.803 103.444 13.4394 103.281 13.125C103.122 12.8106 102.874 12.5663 102.537 12.392C102.203 12.214 101.773 12.125 101.247 12.125H99.3151V22H97.2071ZM110.695 22.1705C109.843 22.1705 109.104 21.983 108.479 21.608C107.854 21.233 107.369 20.7083 107.024 20.0341C106.684 19.3598 106.513 18.572 106.513 17.6705C106.513 16.7689 106.684 15.9792 107.024 15.3011C107.369 14.6231 107.854 14.0966 108.479 13.7216C109.104 13.3466 109.843 13.1591 110.695 13.1591C111.547 13.1591 112.286 13.3466 112.911 13.7216C113.536 14.0966 114.019 14.6231 114.36 15.3011C114.704 15.9792 114.877 16.7689 114.877 17.6705C114.877 18.572 114.704 19.3598 114.36 20.0341C114.019 20.7083 113.536 21.233 112.911 21.608C112.286 21.983 111.547 22.1705 110.695 22.1705ZM110.706 20.5227C111.168 20.5227 111.555 20.3958 111.865 20.142C112.176 19.8845 112.407 19.5398 112.559 19.108C112.714 18.6761 112.791 18.1951 112.791 17.6648C112.791 17.1307 112.714 16.6477 112.559 16.2159C112.407 15.7803 112.176 15.4337 111.865 15.1761C111.555 14.9186 111.168 14.7898 110.706 14.7898C110.233 14.7898 109.839 14.9186 109.524 15.1761C109.214 15.4337 108.981 15.7803 108.826 16.2159C108.674 16.6477 108.598 17.1307 108.598 17.6648C108.598 18.1951 108.674 18.6761 108.826 19.108C108.981 19.5398 109.214 19.8845 109.524 20.142C109.839 20.3958 110.233 20.5227 110.706 20.5227ZM116.222 22V13.2727H118.217V14.7273H118.308C118.467 14.2235 118.739 13.8352 119.126 13.5625C119.516 13.286 119.961 13.1477 120.461 13.1477C120.575 13.1477 120.702 13.1534 120.842 13.1648C120.986 13.1723 121.105 13.1856 121.2 13.2045V15.0966C121.113 15.0663 120.974 15.0398 120.785 15.017C120.599 14.9905 120.419 14.9773 120.245 14.9773C119.87 14.9773 119.533 15.0587 119.234 15.2216C118.938 15.3807 118.705 15.6023 118.535 15.8864C118.364 16.1705 118.279 16.4981 118.279 16.8693V22H116.222ZM126.993 13.2727V14.8636H121.976V13.2727H126.993ZM123.214 11.1818H125.271V19.375C125.271 19.6515 125.313 19.8636 125.396 20.0114C125.483 20.1553 125.597 20.2538 125.737 20.3068C125.877 20.3598 126.033 20.3864 126.203 20.3864C126.332 20.3864 126.449 20.3769 126.555 20.358C126.665 20.339 126.749 20.322 126.805 20.3068L127.152 21.9148C127.042 21.9527 126.885 21.9943 126.68 22.0398C126.48 22.0852 126.233 22.1117 125.942 22.1193C125.427 22.1345 124.963 22.0568 124.55 21.8864C124.137 21.7121 123.809 21.4432 123.567 21.0795C123.328 20.7159 123.211 20.2614 123.214 19.7159V11.1818ZM130.824 22.1761C130.271 22.1761 129.773 22.0777 129.33 21.8807C128.891 21.6799 128.542 21.3845 128.285 20.9943C128.031 20.6042 127.904 20.1231 127.904 19.5511C127.904 19.0587 127.995 18.6515 128.177 18.3295C128.359 18.0076 128.607 17.75 128.921 17.5568C129.235 17.3636 129.59 17.2178 129.984 17.1193C130.381 17.017 130.792 16.9432 131.216 16.8977C131.728 16.8447 132.143 16.7973 132.461 16.7557C132.779 16.7102 133.01 16.642 133.154 16.5511C133.302 16.4564 133.376 16.3106 133.376 16.1136V16.0795C133.376 15.6515 133.249 15.3201 132.995 15.0852C132.741 14.8504 132.376 14.733 131.898 14.733C131.395 14.733 130.995 14.8428 130.699 15.0625C130.408 15.2822 130.211 15.5417 130.109 15.8409L128.188 15.5682C128.34 15.0379 128.59 14.5947 128.938 14.2386C129.287 13.8788 129.713 13.6098 130.216 13.4318C130.72 13.25 131.277 13.1591 131.887 13.1591C132.307 13.1591 132.726 13.2083 133.143 13.3068C133.559 13.4053 133.94 13.5682 134.285 13.7955C134.629 14.0189 134.906 14.3239 135.114 14.7102C135.326 15.0966 135.432 15.5795 135.432 16.1591V22H133.455V20.8011H133.387C133.262 21.0436 133.086 21.2708 132.859 21.483C132.635 21.6913 132.353 21.8598 132.012 21.9886C131.675 22.1136 131.279 22.1761 130.824 22.1761ZM131.359 20.6648C131.771 20.6648 132.129 20.5833 132.432 20.4205C132.735 20.2538 132.968 20.0341 133.131 19.7614C133.298 19.4886 133.381 19.1913 133.381 18.8693V17.8409C133.317 17.8939 133.207 17.9432 133.052 17.9886C132.9 18.0341 132.73 18.0739 132.54 18.108C132.351 18.142 132.163 18.1723 131.978 18.1989C131.792 18.2254 131.631 18.2481 131.495 18.267C131.188 18.3087 130.913 18.3769 130.671 18.4716C130.429 18.5663 130.237 18.6989 130.097 18.8693C129.957 19.036 129.887 19.2519 129.887 19.517C129.887 19.8958 130.025 20.1818 130.302 20.375C130.578 20.5682 130.93 20.6648 131.359 20.6648ZM139.157 10.3636V22H137.101V10.3636H139.157Z" fill="#111827"/>
<defs>
<linearGradient id="paint0_linear_68_475" x1="5.13333" y1="-14.3256" x2="43.6539" y2="-0.522393" gradientUnits="userSpaceOnUse">
<stop stop-color="#EEAD2B"/>
<stop offset="1" stop-color="#E98D0C"/>
</linearGradient>
</defs>
</svg>
